<svg width="19" height="17" viewBox="0 0 19 17" fill="none" xmlns="http://www.w3.org/2000/svg">
<path d="M2 5.70581L1.31259 6.43208L0.545255 5.70581L1.31259 4.97953L2 5.70581ZM6.94375 17C6.39147 17 5.94375 16.5523 5.94375 16C5.94375 15.4477 6.39147 15 6.94375 15L6.94375 17ZM6.25634 11.1113L1.31259 6.43208L2.6874 4.97953L7.63116 9.65871L6.25634 11.1113ZM1.31259 4.97953L6.25634 0.300354L7.63116 1.7529L2.68741 6.43208L1.31259 4.97953ZM2 4.70581L12.6729 4.70581L12.6729 6.70581L2 6.70581L2 4.70581ZM12.6729 17L6.94375 17L6.94375 15L12.6729 15L12.6729 17ZM18.82 10.8529C18.82 14.2478 16.0679 17 12.6729 17L12.6729 15C14.9633 15 16.82 13.1433 16.82 10.8529L18.82 10.8529ZM12.6729 4.70581C16.0679 4.70581 18.82 7.45795 18.82 10.8529L16.82 10.8529C16.82 8.56252 14.9633 6.70581 12.6729 6.70581L12.6729 4.70581Z" fill="#888888"/>
</svg>
