<svg width="60" height="60" viewBox="0 0 60 60" fill="none" xmlns="http://www.w3.org/2000/svg">
<path d="M0 30C0 20.6812 0 16.0218 1.52241 12.3463C3.55229 7.44577 7.44577 3.55229 12.3463 1.52241C16.0218 0 20.6812 0 30 0C39.3188 0 43.9782 0 47.6537 1.52241C52.5542 3.55229 56.4477 7.44577 58.4776 12.3463C60 16.0218 60 20.6812 60 30C60 39.3188 60 43.9782 58.4776 47.6537C56.4477 52.5542 52.5542 56.4477 47.6537 58.4776C43.9782 60 39.3188 60 30 60C20.6812 60 16.0218 60 12.3463 58.4776C7.44577 56.4477 3.55229 52.5542 1.52241 47.6537C0 43.9782 0 39.3188 0 30Z" fill="#7E869E" fill-opacity="0.25"/>
<path fill-rule="evenodd" clip-rule="evenodd" d="M52.6792 55.2758C52.7059 55.3705 52.6737 55.472 52.5973 55.5339C51.1131 56.7376 49.4511 57.7329 47.6537 58.4774C43.9783 59.9998 39.3189 59.9998 30 59.9998C20.6812 59.9998 16.0218 59.9998 12.3464 58.4774C10.5492 57.733 8.88758 56.738 7.40358 55.5346C7.3272 55.4727 7.29501 55.3712 7.32174 55.2766C9.79805 46.5104 19.0123 40 30.0006 40C40.9885 40 50.2026 46.5101 52.6792 55.2758Z" fill="#222222"/>
<circle cx="30" cy="23.3336" r="13.3333" fill="#222222"/>
</svg>
