<svg width="22" height="21" viewBox="0 0 22 21" fill="none" xmlns="http://www.w3.org/2000/svg">
<path fill-rule="evenodd" clip-rule="evenodd" d="M1.17157 1.17157C0 2.34315 0 4.22876 0 8V10.9681V16.4521V19.5219C0 20.4128 1.07714 20.859 1.70711 20.229L5.33759 16.5986C5.40985 16.5263 5.44598 16.4902 5.49192 16.4711C5.53786 16.4521 5.58896 16.4521 5.69114 16.4521H13.9362C17.7074 16.4521 19.593 16.4521 20.7646 15.2805C21.9361 14.109 21.9361 12.2233 21.9361 8.45212V8C21.9361 4.22876 21.9361 2.34315 20.7646 1.17157C19.593 0 17.7074 0 13.9362 0H8C4.22876 0 2.34315 0 1.17157 1.17157Z" fill="#7E869E" fill-opacity="0.25"/>
<path d="M6.16956 6.16956H15.7666" stroke="#222222" stroke-linecap="round" stroke-linejoin="round"/>
<path d="M6.16956 10.2826L13.0246 10.2826" stroke="#222222" stroke-linecap="round" stroke-linejoin="round"/>
</svg>
