<svg width="48" height="47" viewBox="0 0 48 47" fill="none" xmlns="http://www.w3.org/2000/svg">
<g filter="url(#filter0_d_37_425)">
<path fill-rule="evenodd" clip-rule="evenodd" d="M5.17157 3.17157C4 4.34315 4 6.22876 4 10V22V32V32V39.5858C4 40.4767 5.07714 40.9229 5.70711 40.2929L14 32C14 32 14 32 14 32C14 32 14 32 14 32H36C39.7712 32 41.6568 32 42.8284 30.8284C44 29.6569 44 27.7712 44 24V10C44 6.22876 44 4.34315 42.8284 3.17157C41.6568 2 39.7712 2 36 2H12C8.22876 2 6.34315 2 5.17157 3.17157Z" fill="#DFE1E7"/>
<path d="M15.25 13.25L32.75 13.25" stroke="#222222" stroke-width="2" stroke-linecap="round" stroke-linejoin="round"/>
<path d="M15.25 20.75L27.75 20.75" stroke="#222222" stroke-width="2" stroke-linecap="round" stroke-linejoin="round"/>
</g>
<defs>
<filter id="filter0_d_37_425" x="0" y="0" width="48" height="46.5879" filterUnits="userSpaceOnUse" color-interpolation-filters="sRGB">
<feFlood flood-opacity="0" result="BackgroundImageFix"/>
<feColorMatrix in="SourceAlpha" type="matrix" values="0 0 0 0 0 0 0 0 0 0 0 0 0 0 0 0 0 0 127 0" result="hardAlpha"/>
<feOffset dy="2"/>
<feGaussianBlur stdDeviation="2"/>
<feComposite in2="hardAlpha" operator="out"/>
<feColorMatrix type="matrix" values="0 0 0 0 0 0 0 0 0 0 0 0 0 0 0 0 0 0 0.25 0"/>
<feBlend mode="normal" in2="BackgroundImageFix" result="effect1_dropShadow_37_425"/>
<feBlend mode="normal" in="SourceGraphic" in2="effect1_dropShadow_37_425" result="shape"/>
</filter>
</defs>
</svg>
