<svg width="16" height="17" viewBox="0 0 16 17" fill="none" xmlns="http://www.w3.org/2000/svg">
<path d="M0 4.5C0 4.2643 0 4.14645 0.0732233 4.07322C0.146447 4 0.264298 4 0.5 4H15.5C15.7357 4 15.8536 4 15.9268 4.07322C16 4.14645 16 4.2643 16 4.5V4.75155C16 4.84249 16 4.88797 15.986 4.92806C15.974 4.96233 15.9547 4.99358 15.9294 5.01963C15.8998 5.0501 15.8591 5.07044 15.7778 5.11111V5.11111C15.127 5.43649 14.8017 5.59917 14.565 5.84298C14.3626 6.0514 14.2082 6.30138 14.1122 6.57554C14 6.89627 14 7.26005 14 7.98762V13C14 14.8856 14 15.8284 13.4142 16.4142C12.8284 17 11.8856 17 10 17H6C4.11438 17 3.17157 17 2.58579 16.4142C2 15.8284 2 14.8856 2 13V7.98762C2 7.26005 2 6.89627 1.88778 6.57554C1.79185 6.30138 1.63735 6.0514 1.43503 5.84298C1.19835 5.59917 0.872974 5.43649 0.222222 5.11111V5.11111C0.140878 5.07044 0.100206 5.0501 0.070621 5.01963C0.045331 4.99358 0.0260189 4.96233 0.0140277 4.92806C0 4.88797 0 4.84249 0 4.75155V4.5Z" fill="#7E869E" fill-opacity="0.25"/>
<path d="M6.06815 1.37059C6.1821 1.26427 6.43319 1.17033 6.78248 1.10332C7.13177 1.03632 7.55973 1 8 1C8.44027 1 8.86823 1.03632 9.21752 1.10332C9.56681 1.17033 9.8179 1.26427 9.93185 1.37059" stroke="#222222" stroke-linecap="round"/>
<rect x="10" y="8" width="1" height="6" rx="0.5" fill="#222222"/>
<rect x="5" y="8" width="1" height="6" rx="0.5" fill="#222222"/>
</svg>
