<svg width="18" height="18" viewBox="0 0 18 18" fill="none" xmlns="http://www.w3.org/2000/svg">
<path fill-rule="evenodd" clip-rule="evenodd" d="M14.1208 7.79595L15.9168 5.99994C16.462 5.45469 16.7346 5.18207 16.8804 4.88797C17.1577 4.32842 17.1577 3.67146 16.8804 3.11191C16.7346 2.81782 16.462 2.54519 15.9168 1.99994C15.3715 1.45469 15.0989 1.18207 14.8048 1.03633C14.2452 0.759048 13.5883 0.759048 13.0287 1.03633C12.7346 1.18207 12.462 1.45469 11.9168 1.99994L10.0981 3.8186C11.062 5.4692 12.4481 6.84476 14.1208 7.79595ZM8.64365 5.27305L1.77314 12.1436C1.34808 12.5686 1.13555 12.7812 0.995818 13.0422C0.856084 13.3033 0.797138 13.5981 0.679248 14.1875L0.0638519 17.2645C-0.00267025 17.5971 -0.0359313 17.7634 0.0586767 17.858C0.153285 17.9526 0.31959 17.9194 0.6522 17.8529L3.72918 17.2375C4.31863 17.1196 4.61336 17.0606 4.87446 16.9209C5.13555 16.7812 5.34808 16.5686 5.77315 16.1436L12.6625 9.25416C11.0409 8.23851 9.66919 6.87622 8.64365 5.27305Z" fill="#B0B4BA"/>
</svg>
