<svg width="18" height="21" viewBox="0 0 18 21" fill="none" xmlns="http://www.w3.org/2000/svg">
<path d="M0 12.0586C0 10.173 0 9.23017 0.585786 8.64438C1.17157 8.05859 2.11438 8.05859 4 8.05859H13.6471C15.5327 8.05859 16.4755 8.05859 17.0613 8.64438C17.6471 9.23017 17.6471 10.173 17.6471 12.0586V14.9998C17.6471 17.8282 17.6471 19.2424 16.7684 20.1211C15.8897 20.9998 14.4755 20.9998 11.6471 20.9998H6C3.17157 20.9998 1.75736 20.9998 0.87868 20.1211C0 19.2424 0 17.8282 0 14.9998V12.0586Z" fill="#7E869E"/>
<path d="M14.1177 8.05882V6.29412C14.1177 6.02103 14.1177 5.88448 14.1123 5.76908C13.993 3.18916 11.9285 1.12461 9.34857 1.00534C9.23317 1 9.09663 1 8.82354 1V1C8.55044 1 8.4139 1 8.2985 1.00534C5.71858 1.12461 3.65403 3.18916 3.53475 5.76908C3.52942 5.88448 3.52942 6.02103 3.52942 6.29412V8.05882" stroke="#222222"/>
</svg>
