<svg width="30" height="30" viewBox="0 0 30 30" fill="none" xmlns="http://www.w3.org/2000/svg">
<path d="M4.99992 10C4.99992 8.14138 4.99992 7.21206 5.15364 6.43925C5.7849 3.26575 8.26566 0.784982 11.4392 0.153723C12.212 0 13.1413 0 14.9999 0C16.8586 0 17.7879 0 18.5607 0.153723C21.7342 0.784982 24.215 3.26575 24.8463 6.43925C25 7.21206 25 8.14138 25 10V13.0516C25 14.4406 25 15.135 25.1162 15.8092C25.2064 16.3331 25.3487 16.8466 25.5408 17.3422C25.788 17.9802 26.1453 18.5756 26.8599 19.7666L28.1826 21.9711C28.9884 23.314 29.3912 23.9855 29.104 24.4928C28.8168 25.0001 28.0337 25.0001 26.4676 25.0001H3.53234C1.96625 25.0001 1.1832 25.0001 0.895974 24.4928C0.608744 23.9855 1.01161 23.314 1.81735 21.9711L3.14002 19.7666C3.8546 18.5756 4.21189 17.9801 4.45915 17.3422C4.65126 16.8466 4.79349 16.3331 4.88375 15.8093C4.99992 15.135 4.99992 14.4406 4.99992 13.0517V10Z" fill="#FFCE1F"/>
<path d="M19.0166 26.6668C19.0995 26.6668 19.1671 26.734 19.1624 26.8167C19.1158 27.6462 18.6833 28.4341 17.9462 29.0238C17.1648 29.6489 16.105 30.0001 14.9999 30.0001C13.8949 30.0001 12.8351 29.6489 12.0537 29.0238C11.3165 28.4341 10.8841 27.6462 10.8375 26.8167C10.8328 26.734 10.9004 26.6668 10.9833 26.6668L14.9999 26.6668L19.0166 26.6668Z" fill="#FFCE1F"/>
</svg>
