<svg width="21" height="20" viewBox="0 0 21 20" fill="none" xmlns="http://www.w3.org/2000/svg">
<path d="M0 12.5C0 10.6144 0 9.67157 0.585786 9.08579C1.17157 8.5 2.11438 8.5 4 8.5H11C12.8856 8.5 13.8284 8.5 14.4142 9.08579C15 9.67157 15 10.6144 15 12.5V13.5C15 16.3284 15 17.7426 14.1213 18.6213C13.2426 19.5 11.8284 19.5 9 19.5H6C3.17157 19.5 1.75736 19.5 0.87868 18.6213C0 17.7426 0 16.3284 0 13.5V12.5Z" fill="#7E869E"/>
<path d="M11 8.5V5.5C11 3.01472 13.0147 1 15.5 1V1C17.9853 1 20 3.01472 20 5.5V6.5" stroke="#222222"/>
</svg>
