<svg width="18" height="18" viewBox="0 0 18 18" fill="none" xmlns="http://www.w3.org/2000/svg">
<path d="M3.6921 8.56403L7.05132 9.68377C7.51685 9.83895 7.74961 9.91654 7.91654 10.0835C8.08346 10.2504 8.16105 10.4832 8.31623 10.9487L9.43597 14.3079C10.2204 16.6611 10.6126 17.8377 11.3333 17.8377C12.0541 17.8377 12.4463 16.6611 13.2307 14.3079L16.7351 3.79473C17.287 2.13894 17.563 1.31105 17.126 0.874032C16.689 0.437016 15.8611 0.712981 14.2053 1.26491L3.6921 4.7693C1.33889 5.55371 0.162278 5.94591 0.162278 6.66667C0.162278 7.38743 1.33889 7.77963 3.6921 8.56403Z" fill="#F470A4"/>
</svg>
